<?xml version="1.0" standalone="no"?>
<!DOCTYPE svg PUBLIC "-//W3C//DTD SVG 20010904//EN"
 "http://www.w3.org/TR/2001/REC-SVG-20010904/DTD/svg10.dtd">
<svg version="1.0" xmlns="http://www.w3.org/2000/svg"
 width="260.000000pt" height="260.000000pt" viewBox="0 0 260.000000 260.000000"
 preserveAspectRatio="xMidYMid meet">
<metadata>
Created by potrace 1.11, written by Peter Selinger 2001-2013
</metadata>
<g transform="translate(0.000000,260.000000) scale(0.100000,-0.100000)"
fill="#000000" stroke="none">
<path d="M1773 2009 c-132 -33 -221 -98 -268 -193 -30 -61 -37 -91 -37 -166
-2 -140 39 -228 136 -295 50 -34 164 -79 230 -90 17 -3 38 -8 46 -10 8 -2 26
-6 40 -9 84 -14 207 -49 247 -70 92 -47 126 -101 125 -203 -1 -158 -123 -248
-337 -247 -194 0 -289 66 -344 236 -23 71 -93 90 -150 42 -37 -31 -39 -53 -9
-131 76 -205 241 -303 515 -303 222 0 390 86 465 238 31 63 33 72 33 177 0 99
-3 116 -27 165 -37 75 -87 124 -172 165 -62 31 -209 75 -301 91 -16 3 -42 7
-57 9 -55 10 -151 44 -182 66 -51 34 -75 78 -82 145 -11 102 33 175 135 223
49 23 68 26 161 26 88 0 113 -4 155 -23 68 -31 103 -66 135 -137 38 -82 59
-99 111 -92 84 11 101 62 54 161 -35 75 -102 146 -172 183 -115 62 -305 79
-450 42z"/>
<path d="M300 1988 c-45 -13 -76 -42 -92 -87 -18 -53 -20 -1128 -1 -1192 29
-104 63 -112 449 -107 284 4 302 5 359 27 129 50 203 132 233 260 13 53 9 170
-6 226 -26 94 -105 176 -197 205 -46 14 -68 30 -42 30 22 0 107 53 132 82 67
77 93 238 56 346 -35 102 -125 177 -245 205 -73 18 -590 22 -646 5z m587 -150
c98 -26 147 -93 147 -202 0 -111 -56 -186 -160 -215 -23 -6 -136 -11 -275 -11
l-236 0 0 203 c-1 169 2 205 15 220 14 16 37 18 243 17 126 -1 245 -6 266 -12z
m-31 -582 c96 -11 159 -49 196 -119 18 -34 22 -58 22 -132 0 -99 -17 -146 -71
-193 -61 -53 -79 -56 -354 -60 -249 -3 -257 -3 -271 17 -11 16 -15 69 -15 255
l-1 235 32 3 c51 5 407 1 462 -6z"/>
</g>
</svg>
